<svg xmlns="http://www.w3.org/2000/svg" width="349.9566391718138" height="81.00000000000001" viewBox="0 0 349.9566391718138 81.00000000000001" class="css-1j8o68f"><defs id="SvgjsDefs2091"/><g id="SvgjsG2092" featurekey="nameLeftFeature-0" transform="matrix(5.769229609272104,0,0,5.769229609272104,-8.07692062768603,-34.44229955692192)" fill="#ffffff" style="&#10;    fill: #fff;&#10;"><path d="M3.68 17.72 l2.86 0 c0.6 0 0.6 2.28 0 2.28 l-3.86 0 c-1.28 0 -1.28 0 -1.28 -1.08 l0 -11.84 c0 -1.08 0 -1.08 1.22 -1.1 l3.9 0.02 c0.6 0 0.6 2.28 0 2.28 l-2.84 0 l0 3.64 l2 0 c0.6 0 0.6 2.3 0 2.3 l-2 0 l0 3.5 z M17.14 6.42 l0 12.74 c0 1 -1.92 1.02 -2.12 0.52 l-3 -7.36 l0 7.24 c0 0.6 -2.22 0.6 -2.22 0 l0 -12.5 c0 -1.56 1.94 -1.1 2.2 -0.54 l2.94 7.08 l0 -7.18 c0 -0.6 2.2 -0.6 2.2 0 z M21.08 6 l4 0 c0.6 0 0.6 2.28 0 2.28 l-2.86 0 l0 3.64 l2 0 c0.6 0 0.6 2.3 0 2.3 l-2 0 l0 5.34 c0 0.6 -2.28 0.6 -2.28 0 l0 -12.46 c0 -1.1 0 -1.1 1.14 -1.1 z"/></g><g id="SvgjsG2093" featurekey="inlineSymbolFeature-0" transform="matrix(1.364647148874473,0,0,1.364647148874473,137.17676425562763,-27.73235484086577)" fill="#ffffff" style="&#10;    fill: #fff;&#10;"><g xmlns="http://www.w3.org/2000/svg"><path d="M93.683,54.829H66.357c0.498-1.289,0.812-2.66,0.964-4.057c0.064,0.011,0.13,0.018,0.196,0.018h9.659   c0.702,0,1.317-0.615,1.317-1.317c0-0.702-0.615-1.317-1.317-1.317h-9.659c-0.034,0-0.067,0.003-0.1,0.005   c-0.054-1.561-0.314-3.069-0.753-4.499c0.079-0.012,0.159-0.032,0.238-0.072l8.868-3.776c0.702-0.351,0.966-1.054,0.702-1.756   c-0.351-0.702-1.054-0.966-1.756-0.702l-8.868,3.776c-0.051,0.026-0.099,0.053-0.145,0.083c-0.451-0.934-0.983-1.821-1.586-2.653   l6.386-6.386c0.527-0.527,0.527-1.317,0-1.844c-0.527-0.527-1.317-0.527-1.844,0l-6.23,6.23c-1.03-1.051-2.19-1.974-3.454-2.741   l3.45-8.582c0.263-0.702,0-1.493-0.702-1.756c-0.703-0.263-1.493,0-1.756,0.702l-3.387,8.425c-1.556-0.643-3.222-1.066-4.959-1.232   c0.002-0.027,0.004-0.053,0.004-0.08v-9.659c0-0.702-0.615-1.317-1.317-1.317c-0.702,0-1.317,0.615-1.317,1.317v9.659   c0,0.009,0.001,0.018,0.001,0.027c-1.461,0.079-2.875,0.337-4.218,0.753c-0.015-0.113-0.043-0.227-0.086-0.341l-3.776-8.868   c-0.351-0.702-1.054-0.966-1.756-0.702c-0.702,0.351-0.966,1.054-0.702,1.756l3.776,8.868c0.042,0.085,0.091,0.16,0.142,0.232   c-1.478,0.712-2.84,1.628-4.051,2.709l-6.452-6.452c-0.527-0.527-1.317-0.527-1.844,0s-0.527,1.317,0,1.844l6.485,6.485   c-0.868,1.044-1.615,2.191-2.223,3.42L25.81,37.62c-0.703-0.263-1.493,0-1.756,0.702c-0.263,0.703,0,1.493,0.702,1.756l8.532,3.43   c-0.464,1.474-0.738,3.033-0.794,4.648h-9.056c-0.702,0-1.317,0.615-1.317,1.317c0,0.702,0.615,1.317,1.317,1.317h9.165   c0.166,1.387,0.498,2.741,0.975,4.039H6.317C5.615,54.829,5,55.444,5,56.146c0,0.702,0.615,1.317,1.317,1.317h87.366   c0.79,0,1.317-0.615,1.317-1.317C95,55.444,94.385,54.829,93.683,54.829z M35.117,48.771c0-8.166,6.673-14.839,14.839-14.839   c8.166,0,14.839,6.673,14.839,14.839c0,2.019-0.439,3.951-1.229,5.795c-0.033,0.087-0.057,0.175-0.074,0.264h-27.06   C35.536,52.92,35.117,50.881,35.117,48.771z"/><path d="M81.829,65.454H16.502c-0.702,0-1.317,0.615-1.317,1.317s0.615,1.317,1.317,1.317h65.327c0.703,0,1.317-0.615,1.317-1.317   S82.531,65.454,81.829,65.454z"/><path d="M56.629,77.044H41.527c-0.439,0-0.878,0.615-0.878,1.317c0,0.702,0.351,1.317,0.878,1.317h15.102   c0.527,0,0.878-0.615,0.878-1.317C57.507,77.659,57.156,77.044,56.629,77.044z"/></g></g><g id="SvgjsG2094" featurekey="nameRightFeature-0" transform="matrix(5.8526010915436375,0,0,5.8526010915436375,263.80635582063815,-36.052021830872754)" fill="#ffffff" style="&#10;    fill: #fff;&#10;"><path d="M3.68 17.740000000000002 l2.88 0 c0.4 0 0.4 2.26 0 2.26 l-4.02 0 c-1.14 0 -1.14 0 -1.14 -1.1 l0 -12.44 c0 -0.4 2.28 -0.4 2.28 0 l0 11.28 z M11.540000000000001 17.740000000000002 l2.88 0 c0.4 0 0.4 2.26 0 2.26 l-4.02 0 c-1.14 0 -1.14 0 -1.14 -1.1 l0 -12.44 c0 -0.4 2.28 -0.4 2.28 0 l0 11.28 z"/></g></svg>